<?xml version="1.0" encoding="UTF-8"?>
<svg width="254px" height="252px" viewBox="0 0 254 252" version="1.1" xmlns="http://www.w3.org/2000/svg" xmlns:xlink="http://www.w3.org/1999/xlink">
    <!-- Generator: Sketch 45.1 (43504) - http://www.bohemiancoding.com/sketch -->
    <title>Airplane_ballonicon2 (1)</title>
    <desc>Created with Sketch.</desc>
    <defs></defs>
    <g id="Page-1" stroke="none" stroke-width="1" fill="none" fill-rule="evenodd">
        <g id="Artboard" transform="translate(-59.000000, -527.000000)" fill-rule="nonzero">
            <g id="Airplane_ballonicon2-(1)" transform="translate(59.000000, 527.336911)">
                <path d="M248.241793,8.23266643 C241.30484,1.28850697 223.910207,7.43987189 215.585865,15.7750254 L183.913723,47.468789 C180.811013,44.593107 103.888321,17.1660195 101.120747,19.9227823 L91.0810857,29.944426 C88.3063048,32.7156033 88.3063048,37.2057033 91.0810857,39.973277 L147.322651,84.0814823 L125.16044,106.258108 C123.47395,107.944598 121.35863,110.539198 119.124391,113.631097 L118.241506,112.748212 C116.825287,111.335596 96.6306475,108.78424 95.2144281,110.196855 L90.0972997,115.303173 C88.684684,116.712185 88.684684,118.996875 90.0972997,120.40949 L92.6198278,122.921208 L106.147786,136.42394 C103.466699,143.10864 102.475705,148.914058 105.066702,151.505054 C107.657699,154.103258 113.466721,153.105058 120.158627,150.41316 L133.488386,163.71409 L136.140644,166.359141 C137.55326,167.771757 139.841554,167.771757 141.257773,166.359141 L146.374901,161.256427 C147.787517,159.840208 145.228953,139.685209 143.816337,138.276196 L142.944263,137.407726 C146.018144,135.180694 148.594726,133.072581 150.274009,131.393298 L172.43622,109.213069 L216.566047,165.278058 C219.340828,168.045631 223.834532,168.045631 226.605709,165.278058 L236.645371,155.25281 C239.416548,152.485237 211.892163,75.5553374 209.052517,72.571547 L240.69583,40.9066124 C249.030984,32.5822697 255.178745,15.1732223 248.241793,8.23266643 L248.241793,8.23266643 Z M248.241793,8.23266643 C241.30484,1.28850697 223.910207,7.43987189 215.585865,15.7750254 L183.913723,47.468789 C180.811013,44.593107 103.888321,17.1660195 101.120747,19.9227823 L91.0810857,29.944426 C88.3063048,32.7156033 88.3063048,37.2057033 91.0810857,39.973277 L147.322651,84.0814823 L125.16044,106.258108 C123.47395,107.944598 121.35863,110.539198 119.124391,113.631097 L118.241506,112.748212 C116.825287,111.335596 96.6306475,108.78424 95.2144281,110.196855 L90.0972997,115.303173 C88.684684,116.712185 88.684684,118.996875 90.0972997,120.40949 L92.6198278,122.921208 L106.147786,136.42394 C103.466699,143.10864 102.475705,148.914058 105.066702,151.505054 C107.657699,154.103258 113.466721,153.105058 120.158627,150.41316 L133.488386,163.71409 L136.140644,166.359141 C137.55326,167.771757 139.841554,167.771757 141.257773,166.359141 L146.374901,161.256427 C147.787517,159.840208 145.228953,139.685209 143.816337,138.276196 L142.944263,137.407726 C146.018144,135.180694 148.594726,133.072581 150.274009,131.393298 L172.43622,109.213069 L216.566047,165.278058 C219.340828,168.045631 223.834532,168.045631 226.605709,165.278058 L236.645371,155.25281 C239.416548,152.485237 211.892163,75.5553374 209.052517,72.571547 L240.69583,40.9066124 C249.030984,32.5822697 255.178745,15.1732223 248.241793,8.23266643 L248.241793,8.23266643 Z" id="Shape" fill="#53BDE1" opacity="0.161062047"></path>
                <path d="M130.525027,15.1251403 C126.52226,15.1251403 123.273637,18.3737632 123.273637,22.3765307 C123.273637,26.3792982 126.52226,29.6279211 130.525027,29.6279211 C134.527795,29.6279211 137.776418,26.3792982 137.776418,22.3765307 C137.776418,18.3737632 134.527795,15.1251403 130.525027,15.1251403 L130.525027,15.1251403 Z M152.279198,22.3765307 C148.276431,22.3765307 145.027808,25.6251536 145.027808,29.6279211 C145.027808,33.6306886 148.276431,36.8793115 152.279198,36.8793115 C156.281966,36.8793115 159.530589,33.6306886 159.530589,29.6279211 C159.530589,25.6251536 156.281966,22.3765307 152.279198,22.3765307 Z M232.044493,98.5161299 C232.044493,94.5133624 228.79587,91.2647395 224.793102,91.2647395 C220.790335,91.2647395 217.541712,94.5133624 217.541712,98.5161299 C217.541712,102.518897 220.790335,105.76752 224.793102,105.76752 C228.79587,105.76752 232.044493,102.522523 232.044493,98.5161299 Z M232.044493,113.018911 C228.041725,113.018911 224.793102,116.267534 224.793102,120.270301 C224.793102,124.273069 228.041725,127.521692 232.044493,127.521692 C236.04726,127.521692 239.295883,124.273069 239.295883,120.270301 C239.295883,116.267534 236.04726,113.018911 232.044493,113.018911 Z M130.525027,15.1251403 C126.52226,15.1251403 123.273637,18.3737632 123.273637,22.3765307 C123.273637,26.3792982 126.52226,29.6279211 130.525027,29.6279211 C134.527795,29.6279211 137.776418,26.3792982 137.776418,22.3765307 C137.776418,18.3737632 134.527795,15.1251403 130.525027,15.1251403 L130.525027,15.1251403 Z M152.279198,22.3765307 C148.276431,22.3765307 145.027808,25.6251536 145.027808,29.6279211 C145.027808,33.6306886 148.276431,36.8793115 152.279198,36.8793115 C156.281966,36.8793115 159.530589,33.6306886 159.530589,29.6279211 C159.530589,25.6251536 156.281966,22.3765307 152.279198,22.3765307 Z M232.044493,98.5161299 C232.044493,94.5133624 228.79587,91.2647395 224.793102,91.2647395 C220.790335,91.2647395 217.541712,94.5133624 217.541712,98.5161299 C217.541712,102.518897 220.790335,105.76752 224.793102,105.76752 C228.79587,105.76752 232.044493,102.522523 232.044493,98.5161299 Z M232.044493,113.018911 C228.041725,113.018911 224.793102,116.267534 224.793102,120.270301 C224.793102,124.273069 228.041725,127.521692 232.044493,127.521692 C236.04726,127.521692 239.295883,124.273069 239.295883,120.270301 C239.295883,116.267534 236.04726,113.018911 232.044493,113.018911 Z" id="Shape" fill="#676767"></path>
                <g id="Group" transform="translate(0.000000, 23.380156)" fill="#70CFF0" opacity="0.19361413">
                    <path d="M147.591175,12.4368264 L142.464441,7.3100934 L9.42680752,140.344102 C10.5906557,142.584781 11.7980122,144.796455 13.048877,146.979124 L147.591175,12.4368264 Z M3.3972764,127.632414 L125.840629,5.18906171 L120.713896,0.0587029984 L0.493094547,120.275879 C1.41402113,122.752229 2.36757897,125.21045 3.3972764,127.632414 L3.3972764,127.632414 Z M230.982164,106.708527 L225.855431,101.581794 L102.382381,225.051219 C104.833351,226.044659 107.302449,226.994591 109.807805,227.882887 L230.982164,106.708527 L230.982164,106.708527 Z M82.7347388,215.693299 C84.9500385,216.918784 87.1943439,218.082632 89.4640291,219.221101 L216.475758,92.2057465 L211.349025,87.0826392 L82.7347388,215.693299 L82.7347388,215.693299 Z" id="Shape"></path>
                </g>
                <g id="Group" opacity="0.0797667572" transform="translate(94.268075, 27.505707)" fill="#66C3E3">
                    <path d="M51.6516538,9.9827217 C49.1499241,9.09805207 46.6083118,8.20613105 44.0558224,7.32508712 L16.3047513,35.0761582 L22.0514782,39.5828973 L51.6516538,9.9827217 L51.6516538,9.9827217 Z M0.0507597328,22.3245882 L5.79748662,26.834953 L30.0388847,2.59355488 C27.3558703,1.71613665 24.7489954,0.878601055 22.2690199,0.0990765865 L0.0507597328,22.3245882 L0.0507597328,22.3245882 Z M96.0156603,114.272218 L122.211308,88.0765706 L117.084575,82.9534633 L91.5016698,108.536369 L96.0156603,114.272218 Z M131.728758,107.568308 C130.934731,105.077455 130.086318,102.488709 129.205274,99.8383258 L104.27862,124.761355 L108.796236,130.50083 L131.728758,107.568308 Z" id="Shape"></path>
                </g>
                <path d="M119.941623,108.780473 L145.680433,134.468524 C147.101706,135.88617 149.675949,156.164684 148.254677,157.589582 L143.10619,162.723566 C141.681291,164.144839 139.378975,164.144839 137.957702,162.723566 L135.289191,160.062306 L114.872901,139.689525 L94.1665557,119.019436 L91.6285691,116.492327 C90.2072966,115.071054 90.2072966,112.772363 91.6285691,111.354717 L96.7770563,106.217107 C98.1983288,104.792208 118.516725,107.359201 119.941623,108.780473 L119.941623,108.780473 Z M186.048923,43.1227586 L211.301891,68.3358431 C214.09005,71.1240027 241.870127,148.761014 239.078341,151.545548 L228.977155,161.632232 C226.185369,164.416766 221.664127,164.416766 218.875968,161.632232 L163.228798,90.9348013 L92.6147582,35.5595585 C89.8229729,32.7713989 89.8229729,28.2537826 92.6147582,25.4692487 L102.715945,15.3861904 C105.50773,12.6016565 183.260764,40.334599 186.048923,43.1227586 Z" id="Shape" fill="#EAEAEA"></path>
                <path d="M250.734952,3.62080944 C257.714415,10.6038984 251.528979,28.1196319 243.153623,36.4949878 L152.177679,127.543446 C143.802323,135.926053 113.665545,154.76154 106.689707,147.774825 C99.7102437,140.791736 118.531227,110.633203 126.902958,102.250596 L217.882527,11.2093895 C226.254258,2.8231565 243.755488,-3.36590521 250.734952,3.62080944 Z" id="Shape" fill="#FFFFFF"></path>
                <path d="M135.23118,68.9812168 L149.59981,80.2462518 L186.386113,43.4599483 L186.048923,43.1227586 C185.240393,42.3178543 178.148534,39.4209238 168.428045,35.7843516 L135.23118,68.9812168 L135.23118,68.9812168 Z" id="Shape" fill="#DEDEDE"></path>
                <path d="M134.154348,109.501986 L225.133918,18.4607799 C231.997359,11.5900875 244.973722,6.20955581 253.28019,8.32333612 C252.816101,6.49236004 251.996693,4.88255137 250.738577,3.62080944 C243.759114,-3.36590521 226.257883,2.8231565 217.882527,11.2093895 L126.902958,102.250596 C118.527602,110.633203 99.7102437,140.791736 106.689707,147.774825 C107.951449,149.040193 109.985464,149.435393 112.494445,149.221477 C113.440751,137.844046 127.290907,116.372679 134.154348,109.501986 Z" id="Shape" fill="#F2F2F2"></path>
            </g>
        </g>
    </g>
</svg>