<?xml version="1.0" encoding="UTF-8"?>
<svg width="13px" height="21px" viewBox="0 0 13 21" version="1.1" xmlns="http://www.w3.org/2000/svg" xmlns:xlink="http://www.w3.org/1999/xlink">
    <!-- Generator: Sketch 47 (45396) - http://www.bohemiancoding.com/sketch -->
    <title>Group</title>
    <desc>Created with Sketch.</desc>
    <defs></defs>
    <g id="Page-1" stroke="none" stroke-width="1" fill="none" fill-rule="evenodd">
        <g id="Group" fill="#000000">
            <rect id="Rectangle" x="0" y="1" width="1" height="1"></rect>
            <rect id="Rectangle" x="1" y="1" width="1" height="1"></rect>
            <rect id="Rectangle" x="1" y="2" width="1" height="1"></rect>
            <rect id="Rectangle" x="1" y="3" width="1" height="1"></rect>
            <rect id="Rectangle" x="1" y="4" width="1" height="1"></rect>
            <rect id="Rectangle" x="1" y="5" width="1" height="1"></rect>
            <rect id="Rectangle" x="1" y="6" width="1" height="1"></rect>
            <rect id="Rectangle" x="1" y="7" width="1" height="1"></rect>
            <rect id="Rectangle" x="1" y="8" width="1" height="1"></rect>
            <rect id="Rectangle" x="1" y="9" width="1" height="1"></rect>
            <rect id="Rectangle" x="1" y="10" width="1" height="1"></rect>
            <rect id="Rectangle" x="1" y="11" width="1" height="1"></rect>
            <rect id="Rectangle" x="1" y="12" width="1" height="1"></rect>
            <rect id="Rectangle" x="1" y="13" width="1" height="1"></rect>
            <rect id="Rectangle" x="1" y="14" width="1" height="1"></rect>
            <rect id="Rectangle" x="1" y="15" width="1" height="1"></rect>
            <rect id="Rectangle" x="1" y="16" width="1" height="1"></rect>
            <rect id="Rectangle" x="1" y="17" width="1" height="1"></rect>
            <rect id="Rectangle" x="2" y="16" width="1" height="1"></rect>
            <rect id="Rectangle" x="3" y="15" width="1" height="1"></rect>
            <rect id="Rectangle" x="4" y="14" width="1" height="1"></rect>
            <rect id="Rectangle" x="5" y="14" width="1" height="1"></rect>
            <rect id="Rectangle" x="5" y="15" width="1" height="1"></rect>
            <rect id="Rectangle" x="6" y="16" width="1" height="1"></rect>
            <rect id="Rectangle" x="6" y="17" width="1" height="1"></rect>
            <rect id="Rectangle" x="7" y="18" width="1" height="1"></rect>
            <rect id="Rectangle" x="8" y="19" width="1" height="1"></rect>
            <rect id="Rectangle" x="7" y="19" width="1" height="1"></rect>
            <rect id="Rectangle" x="8" y="18" width="1" height="1"></rect>
            <rect id="Rectangle" x="7" y="13" width="1" height="1"></rect>
            <rect id="Rectangle" x="8" y="13" width="1" height="1"></rect>
            <rect id="Rectangle" x="9" y="13" width="1" height="1"></rect>
            <rect id="Rectangle" x="10" y="13" width="1" height="1"></rect>
            <rect id="Rectangle" x="11" y="13" width="1" height="1"></rect>
            <rect id="Rectangle" x="11" y="12" width="1" height="1"></rect>
            <rect id="Rectangle" x="11" y="11" width="1" height="1"></rect>
            <rect id="Rectangle" x="10" y="10" width="1" height="1"></rect>
            <rect id="Rectangle" x="9" y="9" width="1" height="1"></rect>
            <rect id="Rectangle" x="8" y="8" width="1" height="1"></rect>
            <rect id="Rectangle" x="7" y="7" width="1" height="1"></rect>
            <rect id="Rectangle" x="6" y="6" width="1" height="1"></rect>
            <rect id="Rectangle" x="5" y="5" width="1" height="1"></rect>
            <rect id="Rectangle" x="4" y="4" width="1" height="1"></rect>
            <rect id="Rectangle" x="3" y="3" width="1" height="1"></rect>
            <rect id="Rectangle" x="2" y="2" width="1" height="1"></rect>
            <rect id="Rectangle" x="0" y="2" width="1" height="1"></rect>
            <rect id="Rectangle" x="0" y="5" width="1" height="1"></rect>
            <rect id="Rectangle" x="0" y="7" width="1" height="1"></rect>
            <rect id="Rectangle" x="0" y="6" width="1" height="1"></rect>
            <rect id="Rectangle" x="0" y="8" width="1" height="1"></rect>
            <rect id="Rectangle" x="0" y="9" width="1" height="1"></rect>
            <rect id="Rectangle" x="0" y="10" width="1" height="1"></rect>
            <rect id="Rectangle" x="0" y="11" width="1" height="1"></rect>
            <rect id="Rectangle" x="0" y="12" width="1" height="1"></rect>
            <rect id="Rectangle" x="0" y="13" width="1" height="1"></rect>
            <rect id="Rectangle" x="0" y="14" width="1" height="1"></rect>
            <rect id="Rectangle" x="0" y="15" width="1" height="1"></rect>
            <rect id="Rectangle" x="0" y="17" width="1" height="1"></rect>
            <rect id="Rectangle" x="0" y="16" width="1" height="1"></rect>
            <rect id="Rectangle" x="0" y="18" width="1" height="1"></rect>
            <rect id="Rectangle" x="1" y="18" width="1" height="1"></rect>
            <rect id="Rectangle" x="2" y="17" width="1" height="1"></rect>
            <rect id="Rectangle" x="3" y="16" width="1" height="1"></rect>
            <rect id="Rectangle" x="4" y="15" width="1" height="1"></rect>
            <rect id="Rectangle" x="5" y="16" width="1" height="1"></rect>
            <rect id="Rectangle" x="5" y="17" width="1" height="1"></rect>
            <rect id="Rectangle" x="6" y="18" width="1" height="1"></rect>
            <rect id="Rectangle" x="6" y="19" width="1" height="1"></rect>
            <rect id="Rectangle" x="7" y="20" width="1" height="1"></rect>
            <rect id="Rectangle" x="8" y="20" width="1" height="1"></rect>
            <rect id="Rectangle" x="9" y="19" width="1" height="1"></rect>
            <rect id="Rectangle" x="9" y="18" width="1" height="1"></rect>
            <rect id="Rectangle" x="8" y="17" width="1" height="1"></rect>
            <rect id="Rectangle" x="8" y="16" width="1" height="1"></rect>
            <rect id="Rectangle" x="7" y="15" width="1" height="1"></rect>
            <rect id="Rectangle" x="7" y="14" width="1" height="1"></rect>
            <rect id="Rectangle" x="8" y="14" width="1" height="1"></rect>
            <rect id="Rectangle" x="9" y="14" width="1" height="1"></rect>
            <rect id="Rectangle" x="10" y="14" width="1" height="1"></rect>
            <rect id="Rectangle" x="11" y="14" width="1" height="1"></rect>
            <rect id="Rectangle" x="12" y="13" width="1" height="1"></rect>
            <rect id="Rectangle" x="1" y="0" width="1" height="1"></rect>
            <rect id="Rectangle" x="2" y="1" width="1" height="1"></rect>
            <rect id="Rectangle" x="3" y="2" width="1" height="1"></rect>
            <rect id="Rectangle" x="4" y="3" width="1" height="1"></rect>
            <rect id="Rectangle" x="5" y="4" width="1" height="1"></rect>
            <rect id="Rectangle" x="6" y="5" width="1" height="1"></rect>
            <rect id="Rectangle" x="7" y="6" width="1" height="1"></rect>
            <rect id="Rectangle" x="8" y="7" width="1" height="1"></rect>
            <rect id="Rectangle" x="9" y="8" width="1" height="1"></rect>
            <rect id="Rectangle" x="10" y="9" width="1" height="1"></rect>
            <rect id="Rectangle" x="11" y="10" width="1" height="1"></rect>
            <rect id="Rectangle" x="12" y="11" width="1" height="1"></rect>
            <rect id="Rectangle" x="12" y="12" width="1" height="1"></rect>
            <rect id="Rectangle" x="0" y="3" width="1" height="1"></rect>
            <rect id="Rectangle" x="0" y="3" width="1" height="1"></rect>
            <rect id="Rectangle" x="0" y="4" width="1" height="1"></rect>
        </g>
    </g>
</svg>