<?xml version="1.0" encoding="UTF-8"?>
<svg width="253px" height="237px" viewBox="0 0 253 237" version="1.1" xmlns="http://www.w3.org/2000/svg" xmlns:xlink="http://www.w3.org/1999/xlink">
    <!-- Generator: Sketch 45.1 (43504) - http://www.bohemiancoding.com/sketch -->
    <title>Group 4</title>
    <desc>Created with Sketch.</desc>
    <defs></defs>
    <g id="Page-1" stroke="none" stroke-width="1" fill="none" fill-rule="evenodd">
        <g id="Artboard" transform="translate(-1090.000000, -531.000000)">
            <g id="Group-4" transform="translate(1089.000000, 521.000000)">
                <rect id="Rectangle-4" fill="#FFFFFF" opacity="0.27904212" transform="translate(165.500000, 216.000000) rotate(-47.000000) translate(-165.500000, -216.000000) " x="164" y="173" width="3" height="86"></rect>
                <rect id="Rectangle-4" fill="#FFFFFF" opacity="0.27904212" transform="translate(220.500000, 211.000000) rotate(-47.000000) translate(-220.500000, -211.000000) " x="219" y="168" width="3" height="86"></rect>
                <rect id="Rectangle-4" fill="#FFFFFF" opacity="0.27904212" transform="translate(221.500000, 153.000000) rotate(-47.000000) translate(-221.500000, -153.000000) " x="220" y="110" width="3" height="86"></rect>
                <g id="Circle-icons-rocket" opacity="0.821671196" transform="translate(96.730941, 93.189273) rotate(-93.000000) translate(-96.730941, -93.189273) translate(9.230941, 1.189273)" fill-rule="nonzero">
                    <g id="Group" opacity="0.2" transform="translate(57.522485, 89.870809)" fill="#231F20">
                        <path d="M29.2591371,30.4417209 C21.9894724,37.2570316 1.54354044,87.2359764 1.54354044,87.2359764 C-1.63693787,92.688225 2.90660257,96.7774114 13.3567456,91.3251628 L50.1594231,71.3335849 C70.1510011,60.4290878 73.7858334,57.2486095 73.7858334,34.9852614 L70.1510011,8.17837279 C68.7879389,-0.908708088 61.9726283,-2.72612426 55.1573176,4.54354044 L29.2591371,30.4417209 Z" id="Shape"></path>
                    </g>
                    <g id="Group" opacity="0.2" transform="translate(0.000000, 51.978945)" fill="#231F20">
                        <path d="M64.0639202,45.6158827 C56.7942555,52.8855474 7.2696647,73.3314794 7.2696647,73.3314794 C1.81741618,76.5119577 -2.27177022,71.9684173 3.18047831,61.5182742 L22.7177022,24.2612426 C33.6221993,4.2696647 36.8026776,0.634832352 59.0660257,0.634832352 L85.8729143,4.2696647 C94.9599952,5.63272684 96.7774114,12.4480375 89.5077467,19.2633482 L64.0639202,45.6158827 Z" id="Shape"></path>
                    </g>
                    <path d="M86.7816224,111.225449 C79.5119577,118.04076 59.0660257,168.019704 59.0660257,168.019704 C55.8855474,173.471953 60.4290878,177.561139 70.8792309,172.108891 L107.681908,152.117313 C127.673486,141.212816 131.308319,138.032337 131.308319,115.768989 L127.673486,88.9621007 C126.310424,79.8750198 119.495114,78.0576036 112.679803,85.3272684 L86.7816224,111.225449 Z" id="Shape" fill="#C75C5C"></path>
                    <path d="M64.0639202,88.5077467 C56.7942555,95.7774114 7.2696647,116.223343 7.2696647,116.223343 C1.81741618,119.403822 -2.27177022,114.860281 3.18047831,104.410138 L22.7177022,67.1531066 C33.6221993,47.1615287 36.8026776,43.5266963 59.0660257,43.5266963 L85.8729143,47.1615287 C94.9599952,48.5245908 96.7774114,55.3399015 89.5077467,62.1552121 L64.0639202,88.5077467 Z" id="Shape" fill="#C75C5C"></path>
                    <g id="Group" opacity="0.2" transform="translate(0.000000, 101.957890)" fill="#231F20">
                        <path d="M37.2570316,17.445932 C60.4290878,-5.72612426 79.5119577,1.54354044 79.5119577,1.54354044 C79.5119577,1.54354044 86.3272684,21.0807643 63.6095662,43.7984665 C40.891864,66.5161687 3.18047831,83.7816224 0.454354044,80.6011441 C-2.27177022,78.3293739 14.5393294,40.6179882 37.2570316,17.445932 Z" id="Shape"></path>
                    </g>
                    <path d="M37.2570316,110.316741 C60.4290878,87.1446845 79.5119577,94.4143492 79.5119577,94.4143492 C79.5119577,94.4143492 86.3272684,113.951573 63.6095662,136.669275 C40.891864,159.386978 3.18047831,176.652431 0.454354044,173.471953 C-2.27177022,171.200183 14.5393294,133.488797 37.2570316,110.316741 Z" id="Shape" fill="#E0995E"></path>
                    <path d="M56.7942555,91.2338709 C79.9663117,68.0618147 99.0491816,75.3314794 99.0491816,75.3314794 C99.0491816,75.3314794 105.864492,94.8687033 83.14679,117.586405 C60.4290878,140.304108 22.7177022,157.569561 19.9915779,154.389083 C16.8110996,151.662959 33.6221993,114.405927 56.7942555,91.2338709 Z" id="Shape" fill="#F5CF87"></path>
                    <g id="Group" opacity="0.2" transform="translate(47.435404, 9.087081)" fill="#231F20">
                        <path d="M91.5969331,99.4122437 C56.1573176,134.851859 1.63483235,125.310424 1.63483235,125.310424 C1.63483235,125.310424 -7.90660257,70.7879389 27.5330129,35.3483235 C62.9726283,-0.0912919121 116.586405,-3.72612426 123.85607,3.0891864 C130.671381,9.90449705 127.036548,63.9726283 91.5969331,99.4122437 Z" id="Shape"></path>
                    </g>
                    <path d="M139.032337,99.4122437 C103.592722,134.851859 49.0702367,125.310424 49.0702367,125.310424 C49.0702367,125.310424 39.5288018,70.7879389 74.9684173,35.3483235 C110.408033,-0.0912919121 164.02181,-3.72612426 171.291475,3.0891864 C178.106785,9.90449705 174.471953,63.9726283 139.032337,99.4122437 Z" id="Shape" fill="#E0E0D1"></path>
                    <g id="Group" opacity="0.2" transform="translate(24.717702, 83.783728)" fill="#231F20">
                        <path d="M11.6306213,69.696647 C7.99578897,73.3314794 5.72401875,76.5119577 2.0891864,72.8771253 L2.0891864,72.8771253 C-1.54564596,69.242293 1.63483235,66.9705228 5.2696647,63.3356904 L50.2507151,5.63272684 C53.8855474,1.99789448 69.3335849,-1.18258382 72.5140632,2.45224853 L72.5140632,2.45224853 C76.1488956,6.08708088 72.9684173,21.5351184 69.3335849,24.7155967 L11.6306213,69.696647 Z" id="Shape"></path>
                    </g>
                    <path d="M36.3483235,144.393294 C32.7134912,148.028126 30.4417209,151.208605 26.8068886,147.573772 L26.8068886,147.573772 C23.1720562,143.93894 26.3525345,141.66717 29.9873669,138.032337 L74.9684173,80.3293739 C78.6032496,76.6945415 94.0512871,73.5140632 97.2317654,77.1488956 L97.2317654,77.1488956 C100.866598,80.7837279 97.6861194,96.2317654 94.0512871,99.4122437 L36.3483235,144.393294 Z" id="Shape" fill="#C75C5C"></path>
                    <g id="Group" opacity="0.2" transform="translate(101.957890, 44.435404)" fill="#231F20">
                        <circle id="Oval" cx="18.900286" cy="18.6285158" r="18.1741618"></circle>
                    </g>
                    <g id="Group" opacity="0.2" transform="translate(137.306213, 28.261243)" fill="#231F20">
                        <circle id="Oval" cx="9.45014301" cy="9.3588511" r="9.08708088"></circle>
                    </g>
                    <circle id="Oval" fill="#26282C" cx="120.858176" cy="53.9768393" r="18.1741618"></circle>
                    <circle id="Oval" fill="#26282C" cx="146.756356" cy="28.5330129" r="9.08708088"></circle>
                </g>
            </g>
        </g>
    </g>
</svg>