<?xml version="1.0" encoding="UTF-8"?>
<svg width="32px" height="25px" viewBox="0 0 32 25" version="1.1" xmlns="http://www.w3.org/2000/svg" xmlns:xlink="http://www.w3.org/1999/xlink">
    <!-- Generator: Sketch 45.1 (43504) - http://www.bohemiancoding.com/sketch -->
    <title>Twitter_bird_logo_2012</title>
    <desc>Created with Sketch.</desc>
    <defs></defs>
    <g id="Page-1" stroke="none" stroke-width="1" fill="none" fill-rule="evenodd">
        <g id="Artboard" transform="translate(-466.000000, -557.000000)" fill-rule="nonzero" fill="#FFFFFF">
            <g id="Group-7" transform="translate(363.000000, 130.000000)">
                <g id="Group-6" transform="translate(59.000000, 426.000000)">
                    <g id="Twitter_bird_logo_2012" transform="translate(44.722222, 1.000000)">
                        <path d="M9.65266412,24.7818292 C21.1131646,24.7818292 27.3804666,15.2873253 27.3804666,7.05402672 C27.3804666,6.7843493 27.3749738,6.51589477 27.3628774,6.24865293 C28.5794473,5.36917213 29.636838,4.27165036 30.4708477,3.02226626 C29.3544527,3.5184939 28.153067,3.85254619 26.8927788,4.00317545 C28.1791553,3.23180815 29.1667394,2.01160012 29.6326598,0.556974617 C28.4288283,1.27064197 27.0956763,1.78934019 25.6762089,2.06938159 C24.5392286,0.858314649 22.9205322,0.100837322 21.1281858,0.100837322 C17.687386,0.100837322 14.8971628,2.89116245 14.8971628,6.3306374 C14.8971628,6.81956848 14.9518259,7.29514969 15.0587267,7.75132775 C9.88030476,7.49076085 5.28846151,5.01144676 2.21534348,1.24148628 C1.68024837,2.16225995 1.37170349,3.23183872 1.37170349,4.37309913 C1.37170349,6.53475782 2.47169142,8.44307484 4.14439865,9.55946985 C3.12216603,9.52788673 2.16189308,9.24727669 1.32258415,8.78020473 C1.32166698,8.80634601 1.32166698,8.83183201 1.32166698,8.85977093 C1.32166698,11.8772475 3.46936437,14.396601 6.32032437,14.967486 C5.79676518,15.1102174 5.24591519,15.1867499 4.67737409,15.1867499 C4.27651134,15.1867499 3.88596161,15.1472954 3.50635674,15.0743868 C4.29958316,17.550022 6.59975432,19.3515402 9.32679499,19.4018824 C7.1942818,21.0733667 4.50790217,22.0688996 1.58825661,22.0688996 C1.08595529,22.0688996 0.58973783,22.0403289 0.102039829,21.9826514 C2.85955079,23.7501324 6.13383392,24.7814348 9.65300042,24.7814348" id="Shape"></path>
                    </g>
                </g>
            </g>
        </g>
    </g>
</svg>